<?xml version="1.0" encoding="UTF-8" standalone="no"?>
<!DOCTYPE svg PUBLIC "-//W3C//DTD SVG 1.1//EN"
 "http://www.w3.org/Graphics/SVG/1.1/DTD/svg11.dtd">
<!-- Generated by graphviz version 5.0.0 (20220707.1540)
 -->
<!-- Title: dependencies Pages: 1 -->
<svg width="897pt" height="174pt"
 viewBox="0.00 0.00 897.00 173.80" xmlns="http://www.w3.org/2000/svg" xmlns:xlink="http://www.w3.org/1999/xlink">
<g id="graph0" class="graph" transform="scale(1 1) rotate(0) translate(4 169.8)">
<title>dependencies</title>
<polygon fill="white" stroke="transparent" points="-4,4 -4,-169.8 893,-169.8 893,4 -4,4"/>
<text text-anchor="middle" x="444.5" y="-8.2" font-family="sans-serif" font-size="14.00">dependencies</text>
<g id="clust1" class="cluster">
<title>cluster_CommunicationModule</title>
<polygon fill="none" stroke="black" stroke-dasharray="1,5" points="8,-32.8 8,-157.8 881,-157.8 881,-32.8 8,-32.8"/>
</g>
<g id="clust3" class="cluster">
<title>cluster_CommunicationModule_imports</title>
<polygon fill="none" stroke="black" points="533,-40.8 533,-92.8 873,-92.8 873,-40.8 533,-40.8"/>
</g>
<g id="clust6" class="cluster">
<title>cluster_CommunicationModule_providers</title>
<polygon fill="none" stroke="black" points="16,-40.8 16,-92.8 525,-92.8 525,-40.8 16,-40.8"/>
</g>
<!-- MessageModule -->
<g id="node1" class="node">
<title>MessageModule</title>
<polygon fill="#8dd3c7" stroke="black" points="865.04,-84.8 862.04,-88.8 841.04,-88.8 838.04,-84.8 756.96,-84.8 756.96,-48.8 865.04,-48.8 865.04,-84.8"/>
<text text-anchor="middle" x="811" y="-62.6" font-family="Times,serif" font-size="14.00">MessageModule</text>
</g>
<!-- CommunicationModule -->
<g id="node4" class="node">
<title>CommunicationModule</title>
<polygon fill="#8dd3c7" stroke="black" points="595.77,-149.8 592.77,-153.8 571.77,-153.8 568.77,-149.8 446.23,-149.8 446.23,-113.8 595.77,-113.8 595.77,-149.8"/>
<text text-anchor="middle" x="521" y="-127.6" font-family="Times,serif" font-size="14.00">CommunicationModule</text>
</g>
<!-- MessageModule&#45;&gt;CommunicationModule -->
<g id="edge1" class="edge">
<title>MessageModule&#45;&gt;CommunicationModule</title>
<path fill="none" stroke="black" d="M811,-85.08C811,-106.12 811,-137.8 811,-137.8 811,-137.8 606.06,-137.8 606.06,-137.8"/>
<polygon fill="black" stroke="black" points="606.06,-134.3 596.06,-137.8 606.06,-141.3 606.06,-134.3"/>
</g>
<!-- RoomModule -->
<g id="node2" class="node">
<title>RoomModule</title>
<polygon fill="#8dd3c7" stroke="black" points="738.78,-84.8 735.78,-88.8 714.78,-88.8 711.78,-84.8 645.22,-84.8 645.22,-48.8 738.78,-48.8 738.78,-84.8"/>
<text text-anchor="middle" x="692" y="-62.6" font-family="Times,serif" font-size="14.00">RoomModule</text>
</g>
<!-- RoomModule&#45;&gt;CommunicationModule -->
<g id="edge2" class="edge">
<title>RoomModule&#45;&gt;CommunicationModule</title>
<path fill="none" stroke="black" d="M692,-84.82C692,-102.17 692,-125.8 692,-125.8 692,-125.8 606,-125.8 606,-125.8"/>
<polygon fill="black" stroke="black" points="606,-122.3 596,-125.8 606,-129.3 606,-122.3"/>
</g>
<!-- UserModule -->
<g id="node3" class="node">
<title>UserModule</title>
<polygon fill="#8dd3c7" stroke="black" points="626.99,-84.8 623.99,-88.8 602.99,-88.8 599.99,-84.8 541.01,-84.8 541.01,-48.8 626.99,-48.8 626.99,-84.8"/>
<text text-anchor="middle" x="584" y="-62.6" font-family="Times,serif" font-size="14.00">UserModule</text>
</g>
<!-- UserModule&#45;&gt;CommunicationModule -->
<g id="edge3" class="edge">
<title>UserModule&#45;&gt;CommunicationModule</title>
<path fill="none" stroke="black" d="M568.44,-84.91C568.44,-84.91 568.44,-103.79 568.44,-103.79"/>
<polygon fill="black" stroke="black" points="564.94,-103.79 568.44,-113.79 571.94,-103.79 564.94,-103.79"/>
</g>
<!-- AuthService -->
<g id="node5" class="node">
<title>AuthService</title>
<ellipse fill="#fdb462" stroke="black" cx="458" cy="-66.8" rx="59.11" ry="18"/>
<text text-anchor="middle" x="458" y="-62.6" font-family="Times,serif" font-size="14.00">AuthService</text>
</g>
<!-- AuthService&#45;&gt;CommunicationModule -->
<g id="edge4" class="edge">
<title>AuthService&#45;&gt;CommunicationModule</title>
<path fill="none" stroke="black" d="M481.71,-83.54C481.71,-83.54 481.71,-103.52 481.71,-103.52"/>
<polygon fill="black" stroke="black" points="478.21,-103.52 481.71,-113.52 485.21,-103.52 478.21,-103.52"/>
</g>
<!-- CommunicationService -->
<g id="node6" class="node">
<title>CommunicationService</title>
<ellipse fill="#fdb462" stroke="black" cx="278" cy="-66.8" rx="102.44" ry="18"/>
<text text-anchor="middle" x="278" y="-62.6" font-family="Times,serif" font-size="14.00">CommunicationService</text>
</g>
<!-- CommunicationService&#45;&gt;CommunicationModule -->
<g id="edge5" class="edge">
<title>CommunicationService&#45;&gt;CommunicationModule</title>
<path fill="none" stroke="black" d="M278,-84.82C278,-102.17 278,-125.8 278,-125.8 278,-125.8 436.11,-125.8 436.11,-125.8"/>
<polygon fill="black" stroke="black" points="436.11,-129.3 446.11,-125.8 436.11,-122.3 436.11,-129.3"/>
</g>
<!-- PrismaService -->
<g id="node7" class="node">
<title>PrismaService</title>
<ellipse fill="#fdb462" stroke="black" cx="91" cy="-66.8" rx="66.64" ry="18"/>
<text text-anchor="middle" x="91" y="-62.6" font-family="Times,serif" font-size="14.00">PrismaService</text>
</g>
<!-- PrismaService&#45;&gt;CommunicationModule -->
<g id="edge6" class="edge">
<title>PrismaService&#45;&gt;CommunicationModule</title>
<path fill="none" stroke="black" d="M91,-85.08C91,-106.12 91,-137.8 91,-137.8 91,-137.8 436.1,-137.8 436.1,-137.8"/>
<polygon fill="black" stroke="black" points="436.1,-141.3 446.1,-137.8 436.1,-134.3 436.1,-141.3"/>
</g>
</g>
</svg>
