<?xml version="1.0" encoding="UTF-8" standalone="no"?>
<!DOCTYPE svg PUBLIC "-//W3C//DTD SVG 1.1//EN"
 "http://www.w3.org/Graphics/SVG/1.1/DTD/svg11.dtd">
<!-- Generated by graphviz version 5.0.0 (20220707.1540)
 -->
<!-- Title: dependencies Pages: 1 -->
<svg width="1130pt" height="247pt"
 viewBox="0.00 0.00 1130.00 246.80" xmlns="http://www.w3.org/2000/svg" xmlns:xlink="http://www.w3.org/1999/xlink">
<g id="graph0" class="graph" transform="scale(1 1) rotate(0) translate(4 242.8)">
<title>dependencies</title>
<polygon fill="white" stroke="transparent" points="-4,4 -4,-242.8 1126,-242.8 1126,4 -4,4"/>
<text text-anchor="middle" x="561" y="-8.2" font-family="sans-serif" font-size="14.00">dependencies</text>
<g id="clust1" class="cluster">
<title>cluster_CommunicationModule</title>
<polygon fill="none" stroke="black" stroke-dasharray="1,5" points="8,-32.8 8,-230.8 1114,-230.8 1114,-32.8 8,-32.8"/>
</g>
<g id="clust3" class="cluster">
<title>cluster_CommunicationModule_imports</title>
<polygon fill="none" stroke="black" points="766,-40.8 766,-92.8 1106,-92.8 1106,-40.8 766,-40.8"/>
</g>
<g id="clust4" class="cluster">
<title>cluster_CommunicationModule_exports</title>
<polygon fill="none" stroke="black" points="603,-170.8 603,-222.8 779,-222.8 779,-170.8 603,-170.8"/>
</g>
<g id="clust6" class="cluster">
<title>cluster_CommunicationModule_providers</title>
<polygon fill="none" stroke="black" points="16,-40.8 16,-92.8 758,-92.8 758,-40.8 16,-40.8"/>
</g>
<!-- MessageModule -->
<g id="node1" class="node">
<title>MessageModule</title>
<polygon fill="#8dd3c7" stroke="black" points="1098.04,-84.8 1095.04,-88.8 1074.04,-88.8 1071.04,-84.8 989.96,-84.8 989.96,-48.8 1098.04,-48.8 1098.04,-84.8"/>
<text text-anchor="middle" x="1044" y="-62.6" font-family="Times,serif" font-size="14.00">MessageModule</text>
</g>
<!-- CommunicationModule -->
<g id="node4" class="node">
<title>CommunicationModule</title>
<polygon fill="#8dd3c7" stroke="black" points="765.77,-149.8 762.77,-153.8 741.77,-153.8 738.77,-149.8 616.23,-149.8 616.23,-113.8 765.77,-113.8 765.77,-149.8"/>
<text text-anchor="middle" x="691" y="-127.6" font-family="Times,serif" font-size="14.00">CommunicationModule</text>
</g>
<!-- MessageModule&#45;&gt;CommunicationModule -->
<g id="edge1" class="edge">
<title>MessageModule&#45;&gt;CommunicationModule</title>
<path fill="none" stroke="black" d="M1044,-85.08C1044,-106.12 1044,-137.8 1044,-137.8 1044,-137.8 775.86,-137.8 775.86,-137.8"/>
<polygon fill="black" stroke="black" points="775.86,-134.3 765.86,-137.8 775.86,-141.3 775.86,-134.3"/>
</g>
<!-- RoomModule -->
<g id="node2" class="node">
<title>RoomModule</title>
<polygon fill="#8dd3c7" stroke="black" points="971.78,-84.8 968.78,-88.8 947.78,-88.8 944.78,-84.8 878.22,-84.8 878.22,-48.8 971.78,-48.8 971.78,-84.8"/>
<text text-anchor="middle" x="925" y="-62.6" font-family="Times,serif" font-size="14.00">RoomModule</text>
</g>
<!-- RoomModule&#45;&gt;CommunicationModule -->
<g id="edge2" class="edge">
<title>RoomModule&#45;&gt;CommunicationModule</title>
<path fill="none" stroke="black" d="M925,-84.82C925,-102.17 925,-125.8 925,-125.8 925,-125.8 776,-125.8 776,-125.8"/>
<polygon fill="black" stroke="black" points="776,-122.3 766,-125.8 776,-129.3 776,-122.3"/>
</g>
<!-- UserModule -->
<g id="node3" class="node">
<title>UserModule</title>
<polygon fill="#8dd3c7" stroke="black" points="859.99,-84.8 856.99,-88.8 835.99,-88.8 832.99,-84.8 774.01,-84.8 774.01,-48.8 859.99,-48.8 859.99,-84.8"/>
<text text-anchor="middle" x="817" y="-62.6" font-family="Times,serif" font-size="14.00">UserModule</text>
</g>
<!-- UserModule&#45;&gt;CommunicationModule -->
<g id="edge3" class="edge">
<title>UserModule&#45;&gt;CommunicationModule</title>
<path fill="none" stroke="black" d="M773.88,-66.8C764.9,-66.8 758.09,-66.8 758.09,-66.8 758.09,-66.8 758.09,-103.69 758.09,-103.69"/>
<polygon fill="black" stroke="black" points="754.6,-103.69 758.09,-113.69 761.6,-103.69 754.6,-103.69"/>
</g>
<!-- CommunicationGateway  -->
<g id="node5" class="node">
<title>CommunicationGateway </title>
<polygon fill="#fb8072" stroke="black" points="770.97,-214.8 611.03,-214.8 611.03,-178.8 770.97,-178.8 770.97,-214.8"/>
<text text-anchor="middle" x="691" y="-192.6" font-family="Times,serif" font-size="14.00">CommunicationGateway </text>
</g>
<!-- CommunicationModule&#45;&gt;CommunicationGateway  -->
<g id="edge4" class="edge">
<title>CommunicationModule&#45;&gt;CommunicationGateway </title>
<path fill="none" stroke="black" stroke-dasharray="5,2" d="M691,-149.91C691,-149.91 691,-168.79 691,-168.79"/>
<polygon fill="black" stroke="black" points="687.5,-168.79 691,-178.79 694.5,-168.79 687.5,-168.79"/>
</g>
<!-- AuthService -->
<g id="node6" class="node">
<title>AuthService</title>
<ellipse fill="#fdb462" stroke="black" cx="691" cy="-66.8" rx="59.11" ry="18"/>
<text text-anchor="middle" x="691" y="-62.6" font-family="Times,serif" font-size="14.00">AuthService</text>
</g>
<!-- AuthService&#45;&gt;CommunicationModule -->
<g id="edge5" class="edge">
<title>AuthService&#45;&gt;CommunicationModule</title>
<path fill="none" stroke="black" d="M691,-84.91C691,-84.91 691,-103.79 691,-103.79"/>
<polygon fill="black" stroke="black" points="687.5,-103.79 691,-113.79 694.5,-103.79 687.5,-103.79"/>
</g>
<!-- CommunicationGateway -->
<g id="node7" class="node">
<title>CommunicationGateway</title>
<ellipse fill="#fdb462" stroke="black" cx="506" cy="-66.8" rx="107.66" ry="18"/>
<text text-anchor="middle" x="506" y="-62.6" font-family="Times,serif" font-size="14.00">CommunicationGateway</text>
</g>
<!-- CommunicationGateway&#45;&gt;CommunicationModule -->
<g id="edge6" class="edge">
<title>CommunicationGateway&#45;&gt;CommunicationModule</title>
<path fill="none" stroke="black" d="M613.85,-66.8C620.1,-66.8 623.91,-66.8 623.91,-66.8 623.91,-66.8 623.91,-103.69 623.91,-103.69"/>
<polygon fill="black" stroke="black" points="620.41,-103.69 623.91,-113.69 627.41,-103.69 620.41,-103.69"/>
</g>
<!-- CommunicationService -->
<g id="node8" class="node">
<title>CommunicationService</title>
<ellipse fill="#fdb462" stroke="black" cx="278" cy="-66.8" rx="102.44" ry="18"/>
<text text-anchor="middle" x="278" y="-62.6" font-family="Times,serif" font-size="14.00">CommunicationService</text>
</g>
<!-- CommunicationService&#45;&gt;CommunicationModule -->
<g id="edge7" class="edge">
<title>CommunicationService&#45;&gt;CommunicationModule</title>
<path fill="none" stroke="black" d="M278,-84.82C278,-102.17 278,-125.8 278,-125.8 278,-125.8 606.21,-125.8 606.21,-125.8"/>
<polygon fill="black" stroke="black" points="606.21,-129.3 616.21,-125.8 606.21,-122.3 606.21,-129.3"/>
</g>
<!-- PrismaService -->
<g id="node9" class="node">
<title>PrismaService</title>
<ellipse fill="#fdb462" stroke="black" cx="91" cy="-66.8" rx="66.64" ry="18"/>
<text text-anchor="middle" x="91" y="-62.6" font-family="Times,serif" font-size="14.00">PrismaService</text>
</g>
<!-- PrismaService&#45;&gt;CommunicationModule -->
<g id="edge8" class="edge">
<title>PrismaService&#45;&gt;CommunicationModule</title>
<path fill="none" stroke="black" d="M91,-85.08C91,-106.12 91,-137.8 91,-137.8 91,-137.8 606.22,-137.8 606.22,-137.8"/>
<polygon fill="black" stroke="black" points="606.22,-141.3 616.22,-137.8 606.22,-134.3 606.22,-141.3"/>
</g>
</g>
</svg>
