<?xml version="1.0" encoding="UTF-8" standalone="no"?>
<!DOCTYPE svg PUBLIC "-//W3C//DTD SVG 1.1//EN"
 "http://www.w3.org/Graphics/SVG/1.1/DTD/svg11.dtd">
<!-- Generated by graphviz version 5.0.0 (20220707.1540)
 -->
<!-- Title: dependencies Pages: 1 -->
<svg width="356pt" height="247pt"
 viewBox="0.00 0.00 356.00 246.80" xmlns="http://www.w3.org/2000/svg" xmlns:xlink="http://www.w3.org/1999/xlink">
<g id="graph0" class="graph" transform="scale(1 1) rotate(0) translate(4 242.8)">
<title>dependencies</title>
<polygon fill="white" stroke="transparent" points="-4,4 -4,-242.8 352,-242.8 352,4 -4,4"/>
<text text-anchor="middle" x="174" y="-8.2" font-family="sans-serif" font-size="14.00">dependencies</text>
<g id="clust1" class="cluster">
<title>cluster_MessageModule</title>
<polygon fill="none" stroke="black" stroke-dasharray="1,5" points="8,-32.8 8,-230.8 340,-230.8 340,-32.8 8,-32.8"/>
</g>
<g id="clust4" class="cluster">
<title>cluster_MessageModule_exports</title>
<polygon fill="none" stroke="black" points="107,-170.8 107,-222.8 233,-222.8 233,-170.8 107,-170.8"/>
</g>
<g id="clust6" class="cluster">
<title>cluster_MessageModule_providers</title>
<polygon fill="none" stroke="black" points="16,-40.8 16,-92.8 332,-92.8 332,-40.8 16,-40.8"/>
</g>
<!-- MessageService  -->
<g id="node1" class="node">
<title>MessageService </title>
<polygon fill="#fb8072" stroke="black" points="225.47,-214.8 114.53,-214.8 114.53,-178.8 225.47,-178.8 225.47,-214.8"/>
<text text-anchor="middle" x="170" y="-192.6" font-family="Times,serif" font-size="14.00">MessageService </text>
</g>
<!-- MessageModule -->
<g id="node2" class="node">
<title>MessageModule</title>
<polygon fill="#8dd3c7" stroke="black" points="224.04,-149.8 221.04,-153.8 200.04,-153.8 197.04,-149.8 115.96,-149.8 115.96,-113.8 224.04,-113.8 224.04,-149.8"/>
<text text-anchor="middle" x="170" y="-127.6" font-family="Times,serif" font-size="14.00">MessageModule</text>
</g>
<!-- MessageModule&#45;&gt;MessageService  -->
<g id="edge1" class="edge">
<title>MessageModule&#45;&gt;MessageService </title>
<path fill="none" stroke="black" stroke-dasharray="5,2" d="M170,-149.91C170,-149.91 170,-168.79 170,-168.79"/>
<polygon fill="black" stroke="black" points="166.5,-168.79 170,-178.79 173.5,-168.79 166.5,-168.79"/>
</g>
<!-- MessageService -->
<g id="node3" class="node">
<title>MessageService</title>
<ellipse fill="#fdb462" stroke="black" cx="250" cy="-66.8" rx="73.57" ry="18"/>
<text text-anchor="middle" x="250" y="-62.6" font-family="Times,serif" font-size="14.00">MessageService</text>
</g>
<!-- MessageService&#45;&gt;MessageModule -->
<g id="edge2" class="edge">
<title>MessageService&#45;&gt;MessageModule</title>
<path fill="none" stroke="black" d="M200.24,-80.27C200.24,-80.27 200.24,-103.66 200.24,-103.66"/>
<polygon fill="black" stroke="black" points="196.74,-103.66 200.24,-113.66 203.74,-103.66 196.74,-103.66"/>
</g>
<!-- PrismaService -->
<g id="node4" class="node">
<title>PrismaService</title>
<ellipse fill="#fdb462" stroke="black" cx="91" cy="-66.8" rx="66.64" ry="18"/>
<text text-anchor="middle" x="91" y="-62.6" font-family="Times,serif" font-size="14.00">PrismaService</text>
</g>
<!-- PrismaService&#45;&gt;MessageModule -->
<g id="edge3" class="edge">
<title>PrismaService&#45;&gt;MessageModule</title>
<path fill="none" stroke="black" d="M136.77,-79.95C136.77,-79.95 136.77,-103.49 136.77,-103.49"/>
<polygon fill="black" stroke="black" points="133.27,-103.49 136.77,-113.49 140.27,-103.49 133.27,-103.49"/>
</g>
</g>
</svg>
