<?xml version="1.0" encoding="UTF-8" standalone="no"?>
<!DOCTYPE svg PUBLIC "-//W3C//DTD SVG 1.1//EN"
 "http://www.w3.org/Graphics/SVG/1.1/DTD/svg11.dtd">
<!-- Generated by graphviz version 5.0.0 (20220707.1540)
 -->
<!-- Title: dependencies Pages: 1 -->
<svg width="635pt" height="247pt"
 viewBox="0.00 0.00 635.00 246.80" xmlns="http://www.w3.org/2000/svg" xmlns:xlink="http://www.w3.org/1999/xlink">
<g id="graph0" class="graph" transform="scale(1 1) rotate(0) translate(4 242.8)">
<title>dependencies</title>
<polygon fill="white" stroke="transparent" points="-4,4 -4,-242.8 631,-242.8 631,4 -4,4"/>
<text text-anchor="middle" x="313.5" y="-8.2" font-family="sans-serif" font-size="14.00">dependencies</text>
<g id="clust1" class="cluster">
<title>cluster_MessageModule</title>
<polygon fill="none" stroke="black" stroke-dasharray="1,5" points="8,-32.8 8,-230.8 619,-230.8 619,-32.8 8,-32.8"/>
</g>
<g id="clust4" class="cluster">
<title>cluster_MessageModule_exports</title>
<polygon fill="none" stroke="black" points="233,-170.8 233,-222.8 359,-222.8 359,-170.8 233,-170.8"/>
</g>
<g id="clust6" class="cluster">
<title>cluster_MessageModule_providers</title>
<polygon fill="none" stroke="black" points="16,-40.8 16,-92.8 611,-92.8 611,-40.8 16,-40.8"/>
</g>
<!-- MessageService  -->
<g id="node1" class="node">
<title>MessageService </title>
<polygon fill="#fb8072" stroke="black" points="351.47,-214.8 240.53,-214.8 240.53,-178.8 351.47,-178.8 351.47,-214.8"/>
<text text-anchor="middle" x="296" y="-192.6" font-family="Times,serif" font-size="14.00">MessageService </text>
</g>
<!-- MessageModule -->
<g id="node2" class="node">
<title>MessageModule</title>
<polygon fill="#8dd3c7" stroke="black" points="350.04,-149.8 347.04,-153.8 326.04,-153.8 323.04,-149.8 241.96,-149.8 241.96,-113.8 350.04,-113.8 350.04,-149.8"/>
<text text-anchor="middle" x="296" y="-127.6" font-family="Times,serif" font-size="14.00">MessageModule</text>
</g>
<!-- MessageModule&#45;&gt;MessageService  -->
<g id="edge1" class="edge">
<title>MessageModule&#45;&gt;MessageService </title>
<path fill="none" stroke="black" stroke-dasharray="5,2" d="M296,-149.91C296,-149.91 296,-168.79 296,-168.79"/>
<polygon fill="black" stroke="black" points="292.5,-168.79 296,-178.79 299.5,-168.79 292.5,-168.79"/>
</g>
<!-- MessageService -->
<g id="node3" class="node">
<title>MessageService</title>
<ellipse fill="#fdb462" stroke="black" cx="529" cy="-66.8" rx="73.57" ry="18"/>
<text text-anchor="middle" x="529" y="-62.6" font-family="Times,serif" font-size="14.00">MessageService</text>
</g>
<!-- MessageService&#45;&gt;MessageModule -->
<g id="edge2" class="edge">
<title>MessageService&#45;&gt;MessageModule</title>
<path fill="none" stroke="black" d="M529,-84.91C529,-104.14 529,-131.8 529,-131.8 529,-131.8 360.04,-131.8 360.04,-131.8"/>
<polygon fill="black" stroke="black" points="360.04,-128.3 350.04,-131.8 360.04,-135.3 360.04,-128.3"/>
</g>
<!-- PrismaService -->
<g id="node4" class="node">
<title>PrismaService</title>
<ellipse fill="#fdb462" stroke="black" cx="370" cy="-66.8" rx="66.64" ry="18"/>
<text text-anchor="middle" x="370" y="-62.6" font-family="Times,serif" font-size="14.00">PrismaService</text>
</g>
<!-- PrismaService&#45;&gt;MessageModule -->
<g id="edge3" class="edge">
<title>PrismaService&#45;&gt;MessageModule</title>
<path fill="none" stroke="black" d="M326.73,-80.58C326.73,-80.58 326.73,-103.35 326.73,-103.35"/>
<polygon fill="black" stroke="black" points="323.23,-103.35 326.73,-113.35 330.23,-103.35 323.23,-103.35"/>
</g>
<!-- RoomService -->
<g id="node5" class="node">
<title>RoomService</title>
<ellipse fill="#fdb462" stroke="black" cx="222" cy="-66.8" rx="63.71" ry="18"/>
<text text-anchor="middle" x="222" y="-62.6" font-family="Times,serif" font-size="14.00">RoomService</text>
</g>
<!-- RoomService&#45;&gt;MessageModule -->
<g id="edge4" class="edge">
<title>RoomService&#45;&gt;MessageModule</title>
<path fill="none" stroke="black" d="M263.67,-80.58C263.67,-80.58 263.67,-103.35 263.67,-103.35"/>
<polygon fill="black" stroke="black" points="260.17,-103.35 263.67,-113.35 267.17,-103.35 260.17,-103.35"/>
</g>
<!-- UserService -->
<g id="node6" class="node">
<title>UserService</title>
<ellipse fill="#fdb462" stroke="black" cx="82" cy="-66.8" rx="58.46" ry="18"/>
<text text-anchor="middle" x="82" y="-62.6" font-family="Times,serif" font-size="14.00">UserService</text>
</g>
<!-- UserService&#45;&gt;MessageModule -->
<g id="edge5" class="edge">
<title>UserService&#45;&gt;MessageModule</title>
<path fill="none" stroke="black" d="M82,-84.91C82,-104.14 82,-131.8 82,-131.8 82,-131.8 231.72,-131.8 231.72,-131.8"/>
<polygon fill="black" stroke="black" points="231.72,-135.3 241.72,-131.8 231.72,-128.3 231.72,-135.3"/>
</g>
</g>
</svg>
