<?xml version="1.0" encoding="UTF-8" standalone="no"?>
<!DOCTYPE svg PUBLIC "-//W3C//DTD SVG 1.1//EN"
 "http://www.w3.org/Graphics/SVG/1.1/DTD/svg11.dtd">
<!-- Generated by graphviz version 5.0.0 (20220707.1540)
 -->
<!-- Title: dependencies Pages: 1 -->
<svg width="578pt" height="247pt"
 viewBox="0.00 0.00 578.00 246.80" xmlns="http://www.w3.org/2000/svg" xmlns:xlink="http://www.w3.org/1999/xlink">
<g id="graph0" class="graph" transform="scale(1 1) rotate(0) translate(4 242.8)">
<title>dependencies</title>
<polygon fill="white" stroke="transparent" points="-4,4 -4,-242.8 574,-242.8 574,4 -4,4"/>
<text text-anchor="middle" x="285" y="-8.2" font-family="sans-serif" font-size="14.00">dependencies</text>
<g id="clust1" class="cluster">
<title>cluster_UserModule</title>
<polygon fill="none" stroke="black" stroke-dasharray="1,5" points="8,-32.8 8,-230.8 562,-230.8 562,-32.8 8,-32.8"/>
</g>
<g id="clust3" class="cluster">
<title>cluster_UserModule_imports</title>
<polygon fill="none" stroke="black" points="444,-40.8 444,-92.8 554,-92.8 554,-40.8 444,-40.8"/>
</g>
<g id="clust6" class="cluster">
<title>cluster_UserModule_providers</title>
<polygon fill="none" stroke="black" points="16,-40.8 16,-92.8 436,-92.8 436,-40.8 16,-40.8"/>
</g>
<g id="clust4" class="cluster">
<title>cluster_UserModule_exports</title>
<polygon fill="none" stroke="black" points="245,-170.8 245,-222.8 349,-222.8 349,-170.8 245,-170.8"/>
</g>
<!-- RoomModule -->
<g id="node1" class="node">
<title>RoomModule</title>
<polygon fill="#8dd3c7" stroke="black" points="545.78,-84.8 542.78,-88.8 521.78,-88.8 518.78,-84.8 452.22,-84.8 452.22,-48.8 545.78,-48.8 545.78,-84.8"/>
<text text-anchor="middle" x="499" y="-62.6" font-family="Times,serif" font-size="14.00">RoomModule</text>
</g>
<!-- UserModule -->
<g id="node2" class="node">
<title>UserModule</title>
<polygon fill="#8dd3c7" stroke="black" points="339.99,-149.8 336.99,-153.8 315.99,-153.8 312.99,-149.8 254.01,-149.8 254.01,-113.8 339.99,-113.8 339.99,-149.8"/>
<text text-anchor="middle" x="297" y="-127.6" font-family="Times,serif" font-size="14.00">UserModule</text>
</g>
<!-- RoomModule&#45;&gt;UserModule -->
<g id="edge1" class="edge">
<title>RoomModule&#45;&gt;UserModule</title>
<path fill="none" stroke="black" d="M499,-84.91C499,-104.14 499,-131.8 499,-131.8 499,-131.8 350.33,-131.8 350.33,-131.8"/>
<polygon fill="black" stroke="black" points="350.33,-128.3 340.33,-131.8 350.33,-135.3 350.33,-128.3"/>
</g>
<!-- UserService  -->
<g id="node3" class="node">
<title>UserService </title>
<polygon fill="#fb8072" stroke="black" points="340.91,-214.8 253.09,-214.8 253.09,-178.8 340.91,-178.8 340.91,-214.8"/>
<text text-anchor="middle" x="297" y="-192.6" font-family="Times,serif" font-size="14.00">UserService </text>
</g>
<!-- UserModule&#45;&gt;UserService  -->
<g id="edge2" class="edge">
<title>UserModule&#45;&gt;UserService </title>
<path fill="none" stroke="black" stroke-dasharray="5,2" d="M297,-149.91C297,-149.91 297,-168.79 297,-168.79"/>
<polygon fill="black" stroke="black" points="293.5,-168.79 297,-178.79 300.5,-168.79 293.5,-168.79"/>
</g>
<!-- AuthService -->
<g id="node4" class="node">
<title>AuthService</title>
<ellipse fill="#fdb462" stroke="black" cx="369" cy="-66.8" rx="59.11" ry="18"/>
<text text-anchor="middle" x="369" y="-62.6" font-family="Times,serif" font-size="14.00">AuthService</text>
</g>
<!-- AuthService&#45;&gt;UserModule -->
<g id="edge3" class="edge">
<title>AuthService&#45;&gt;UserModule</title>
<path fill="none" stroke="black" d="M324.84,-79.03C324.84,-79.03 324.84,-103.48 324.84,-103.48"/>
<polygon fill="black" stroke="black" points="321.34,-103.48 324.84,-113.48 328.34,-103.48 321.34,-103.48"/>
</g>
<!-- PrismaService -->
<g id="node5" class="node">
<title>PrismaService</title>
<ellipse fill="#fdb462" stroke="black" cx="225" cy="-66.8" rx="66.64" ry="18"/>
<text text-anchor="middle" x="225" y="-62.6" font-family="Times,serif" font-size="14.00">PrismaService</text>
</g>
<!-- PrismaService&#45;&gt;UserModule -->
<g id="edge4" class="edge">
<title>PrismaService&#45;&gt;UserModule</title>
<path fill="none" stroke="black" d="M272.91,-79.64C272.91,-79.64 272.91,-103.32 272.91,-103.32"/>
<polygon fill="black" stroke="black" points="269.41,-103.32 272.91,-113.32 276.41,-103.32 269.41,-103.32"/>
</g>
<!-- UserService -->
<g id="node6" class="node">
<title>UserService</title>
<ellipse fill="#fdb462" stroke="black" cx="82" cy="-66.8" rx="58.46" ry="18"/>
<text text-anchor="middle" x="82" y="-62.6" font-family="Times,serif" font-size="14.00">UserService</text>
</g>
<!-- UserService&#45;&gt;UserModule -->
<g id="edge5" class="edge">
<title>UserService&#45;&gt;UserModule</title>
<path fill="none" stroke="black" d="M82,-84.91C82,-104.14 82,-131.8 82,-131.8 82,-131.8 244.01,-131.8 244.01,-131.8"/>
<polygon fill="black" stroke="black" points="244.01,-135.3 254.01,-131.8 244.01,-128.3 244.01,-135.3"/>
</g>
</g>
</svg>
