<?xml version="1.0" encoding="UTF-8" standalone="no"?>
<!DOCTYPE svg PUBLIC "-//W3C//DTD SVG 1.1//EN"
 "http://www.w3.org/Graphics/SVG/1.1/DTD/svg11.dtd">
<!-- Generated by graphviz version 5.0.0 (20220707.1540)
 -->
<!-- Title: dependencies Pages: 1 -->
<svg width="890pt" height="383pt"
 viewBox="0.00 0.00 890.00 382.80" xmlns="http://www.w3.org/2000/svg" xmlns:xlink="http://www.w3.org/1999/xlink">
<g id="graph0" class="graph" transform="scale(1 1) rotate(0) translate(4 378.8)">
<title>dependencies</title>
<polygon fill="white" stroke="transparent" points="-4,4 -4,-378.8 886,-378.8 886,4 -4,4"/>
<text text-anchor="middle" x="441" y="-8.2" font-family="sans-serif" font-size="14.00">dependencies</text>
<g id="clust1" class="cluster">
<title>cluster_AppModule</title>
<polygon fill="none" stroke="black" stroke-dasharray="1,5" points="8,-176.8 8,-366.8 202,-366.8 202,-176.8 8,-176.8"/>
</g>
<g id="clust3" class="cluster">
<title>cluster_AppModule_imports</title>
<polygon fill="none" stroke="black" points="28,-184.8 28,-301.8 194,-301.8 194,-184.8 28,-184.8"/>
</g>
<g id="clust7" class="cluster">
<title>cluster_CommunicationModule</title>
<polygon fill="none" stroke="black" stroke-dasharray="1,5" points="350,-32.8 350,-168.8 874,-168.8 874,-32.8 350,-32.8"/>
</g>
<g id="clust9" class="cluster">
<title>cluster_CommunicationModule_imports</title>
<polygon fill="none" stroke="black" points="376,-108.8 376,-160.8 612,-160.8 612,-108.8 376,-108.8"/>
</g>
<g id="clust12" class="cluster">
<title>cluster_CommunicationModule_providers</title>
<polygon fill="none" stroke="black" points="358,-40.8 358,-92.8 866,-92.8 866,-40.8 358,-40.8"/>
</g>
<g id="clust13" class="cluster">
<title>cluster_MessageModule</title>
<polygon fill="none" stroke="black" stroke-dasharray="1,5" points="210,-176.8 210,-244.8 524,-244.8 524,-176.8 210,-176.8"/>
</g>
<g id="clust16" class="cluster">
<title>cluster_MessageModule_exports</title>
<polygon fill="none" stroke="black" points="390,-184.8 390,-236.8 516,-236.8 516,-184.8 390,-184.8"/>
</g>
<g id="clust18" class="cluster">
<title>cluster_MessageModule_providers</title>
<polygon fill="none" stroke="black" points="218,-184.8 218,-236.8 382,-236.8 382,-184.8 218,-184.8"/>
</g>
<g id="clust19" class="cluster">
<title>cluster_RoomModule</title>
<polygon fill="none" stroke="black" stroke-dasharray="1,5" points="560,-176.8 560,-244.8 840,-244.8 840,-176.8 560,-176.8"/>
</g>
<g id="clust22" class="cluster">
<title>cluster_RoomModule_exports</title>
<polygon fill="none" stroke="black" points="720,-184.8 720,-236.8 832,-236.8 832,-184.8 720,-184.8"/>
</g>
<g id="clust24" class="cluster">
<title>cluster_RoomModule_providers</title>
<polygon fill="none" stroke="black" points="568,-184.8 568,-236.8 712,-236.8 712,-184.8 568,-184.8"/>
</g>
<g id="clust25" class="cluster">
<title>cluster_UserModule</title>
<polygon fill="none" stroke="black" stroke-dasharray="1,5" points="26,-100.8 26,-168.8 286,-168.8 286,-100.8 26,-100.8"/>
</g>
<g id="clust28" class="cluster">
<title>cluster_UserModule_exports</title>
<polygon fill="none" stroke="black" points="174,-108.8 174,-160.8 278,-160.8 278,-108.8 174,-108.8"/>
</g>
<g id="clust30" class="cluster">
<title>cluster_UserModule_providers</title>
<polygon fill="none" stroke="black" points="34,-108.8 34,-160.8 166,-160.8 166,-108.8 34,-108.8"/>
</g>
<!-- CommunicationModule -->
<g id="node1" class="node">
<title>CommunicationModule</title>
<polygon fill="#8dd3c7" stroke="black" points="185.77,-293.8 182.77,-297.8 161.77,-297.8 158.77,-293.8 36.23,-293.8 36.23,-257.8 185.77,-257.8 185.77,-293.8"/>
<text text-anchor="middle" x="111" y="-271.6" font-family="Times,serif" font-size="14.00">CommunicationModule</text>
</g>
<!-- AppModule -->
<g id="node3" class="node">
<title>AppModule</title>
<polygon fill="#8dd3c7" stroke="black" points="125.66,-358.8 122.66,-362.8 101.66,-362.8 98.66,-358.8 42.34,-358.8 42.34,-322.8 125.66,-322.8 125.66,-358.8"/>
<text text-anchor="middle" x="84" y="-336.6" font-family="Times,serif" font-size="14.00">AppModule</text>
</g>
<!-- CommunicationModule&#45;&gt;AppModule -->
<g id="edge1" class="edge">
<title>CommunicationModule&#45;&gt;AppModule</title>
<path fill="none" stroke="black" d="M84,-293.91C84,-293.91 84,-312.79 84,-312.79"/>
<polygon fill="black" stroke="black" points="80.5,-312.79 84,-322.79 87.5,-312.79 80.5,-312.79"/>
</g>
<!-- UserModule -->
<g id="node2" class="node">
<title>UserModule</title>
<polygon fill="#8dd3c7" stroke="black" points="163.99,-228.8 160.99,-232.8 139.99,-232.8 136.99,-228.8 78.01,-228.8 78.01,-192.8 163.99,-192.8 163.99,-228.8"/>
<text text-anchor="middle" x="121" y="-206.6" font-family="Times,serif" font-size="14.00">UserModule</text>
</g>
<!-- UserModule&#45;&gt;CommunicationModule -->
<g id="edge5" class="edge">
<title>UserModule&#45;&gt;CommunicationModule</title>
<path fill="none" stroke="black" d="M121,-228.91C121,-228.91 121,-247.79 121,-247.79"/>
<polygon fill="black" stroke="black" points="117.5,-247.79 121,-257.79 124.5,-247.79 117.5,-247.79"/>
</g>
<!-- UserModule&#45;&gt;AppModule -->
<g id="edge2" class="edge">
<title>UserModule&#45;&gt;AppModule</title>
<path fill="none" stroke="black" d="M77.96,-210.8C49.77,-210.8 18.12,-210.8 18.12,-210.8 18.12,-210.8 18.12,-340.8 18.12,-340.8 18.12,-340.8 32.28,-340.8 32.28,-340.8"/>
<polygon fill="black" stroke="black" points="32.28,-344.3 42.28,-340.8 32.28,-337.3 32.28,-344.3"/>
</g>
<!-- UserService  -->
<g id="node13" class="node">
<title>UserService </title>
<polygon fill="#fb8072" stroke="black" points="269.91,-152.8 182.09,-152.8 182.09,-116.8 269.91,-116.8 269.91,-152.8"/>
<text text-anchor="middle" x="226" y="-130.6" font-family="Times,serif" font-size="14.00">UserService </text>
</g>
<!-- UserModule&#45;&gt;UserService  -->
<g id="edge15" class="edge">
<title>UserModule&#45;&gt;UserService </title>
<path fill="none" stroke="black" stroke-dasharray="5,2" d="M164.02,-216.8C185.12,-216.8 206.05,-216.8 206.05,-216.8 206.05,-216.8 206.05,-163 206.05,-163"/>
<polygon fill="black" stroke="black" points="209.55,-163 206.05,-153 202.55,-163 209.55,-163"/>
</g>
<!-- MessageModule -->
<g id="node4" class="node">
<title>MessageModule</title>
<polygon fill="#8dd3c7" stroke="black" points="492.04,-152.8 489.04,-156.8 468.04,-156.8 465.04,-152.8 383.96,-152.8 383.96,-116.8 492.04,-116.8 492.04,-152.8"/>
<text text-anchor="middle" x="438" y="-130.6" font-family="Times,serif" font-size="14.00">MessageModule</text>
</g>
<!-- MessageModule&#45;&gt;CommunicationModule -->
<g id="edge3" class="edge">
<title>MessageModule&#45;&gt;CommunicationModule</title>
<path fill="none" stroke="black" d="M390.75,-152.88C390.75,-189.03 390.75,-266.8 390.75,-266.8 390.75,-266.8 195.97,-266.8 195.97,-266.8"/>
<polygon fill="black" stroke="black" points="195.97,-263.3 185.97,-266.8 195.97,-270.3 195.97,-263.3"/>
</g>
<!-- MessageService  -->
<g id="node9" class="node">
<title>MessageService </title>
<polygon fill="#fb8072" stroke="black" points="508.47,-228.8 397.53,-228.8 397.53,-192.8 508.47,-192.8 508.47,-228.8"/>
<text text-anchor="middle" x="453" y="-206.6" font-family="Times,serif" font-size="14.00">MessageService </text>
</g>
<!-- MessageModule&#45;&gt;MessageService  -->
<g id="edge9" class="edge">
<title>MessageModule&#45;&gt;MessageService </title>
<path fill="none" stroke="black" stroke-dasharray="5,2" d="M445.02,-152.81C445.02,-152.81 445.02,-182.65 445.02,-182.65"/>
<polygon fill="black" stroke="black" points="441.52,-182.65 445.02,-192.65 448.52,-182.65 441.52,-182.65"/>
</g>
<!-- RoomModule -->
<g id="node5" class="node">
<title>RoomModule</title>
<polygon fill="#8dd3c7" stroke="black" points="603.78,-152.8 600.78,-156.8 579.78,-156.8 576.78,-152.8 510.22,-152.8 510.22,-116.8 603.78,-116.8 603.78,-152.8"/>
<text text-anchor="middle" x="557" y="-130.6" font-family="Times,serif" font-size="14.00">RoomModule</text>
</g>
<!-- RoomModule&#45;&gt;CommunicationModule -->
<g id="edge4" class="edge">
<title>RoomModule&#45;&gt;CommunicationModule</title>
<path fill="none" stroke="black" d="M554.3,-152.94C554.3,-191.03 554.3,-275.8 554.3,-275.8 554.3,-275.8 195.95,-275.8 195.95,-275.8"/>
<polygon fill="black" stroke="black" points="195.95,-272.3 185.95,-275.8 195.95,-279.3 195.95,-272.3"/>
</g>
<!-- RoomModule&#45;&gt;UserModule -->
<g id="edge14" class="edge">
<title>RoomModule&#45;&gt;UserModule</title>
<path fill="none" stroke="black" d="M532.21,-153.04C532.21,-160.23 532.21,-166.8 532.21,-166.8 532.21,-166.8 118.12,-166.8 118.12,-166.8 118.12,-166.8 118.12,-182.65 118.12,-182.65"/>
<polygon fill="black" stroke="black" points="114.62,-182.65 118.12,-192.65 121.62,-182.65 114.62,-182.65"/>
</g>
<!-- RoomService  -->
<g id="node11" class="node">
<title>RoomService </title>
<polygon fill="#fb8072" stroke="black" points="823.71,-228.8 728.29,-228.8 728.29,-192.8 823.71,-192.8 823.71,-228.8"/>
<text text-anchor="middle" x="776" y="-206.6" font-family="Times,serif" font-size="14.00">RoomService </text>
</g>
<!-- RoomModule&#45;&gt;RoomService  -->
<g id="edge12" class="edge">
<title>RoomModule&#45;&gt;RoomService </title>
<path fill="none" stroke="black" stroke-dasharray="5,2" d="M603.98,-134.8C668.33,-134.8 776,-134.8 776,-134.8 776,-134.8 776,-182.79 776,-182.79"/>
<polygon fill="black" stroke="black" points="772.5,-182.79 776,-192.79 779.5,-182.79 772.5,-182.79"/>
</g>
<!-- AuthService -->
<g id="node6" class="node">
<title>AuthService</title>
<ellipse fill="#fdb462" stroke="black" cx="425" cy="-66.8" rx="59.11" ry="18"/>
<text text-anchor="middle" x="425" y="-62.6" font-family="Times,serif" font-size="14.00">AuthService</text>
</g>
<!-- AuthService&#45;&gt;CommunicationModule -->
<g id="edge6" class="edge">
<title>AuthService&#45;&gt;CommunicationModule</title>
<path fill="none" stroke="black" d="M369.08,-72.8C294.84,-72.8 173.02,-72.8 173.02,-72.8 173.02,-72.8 173.02,-247.79 173.02,-247.79"/>
<polygon fill="black" stroke="black" points="169.52,-247.79 173.02,-257.79 176.52,-247.79 169.52,-247.79"/>
</g>
<!-- AuthService&#45;&gt;UserModule -->
<g id="edge16" class="edge">
<title>AuthService&#45;&gt;UserModule</title>
<path fill="none" stroke="black" d="M369.03,-60.8C293.56,-60.8 168.51,-60.8 168.51,-60.8 168.51,-60.8 168.51,-204.8 168.51,-204.8 168.51,-204.8 168.07,-204.8 168.07,-204.8"/>
<polygon fill="black" stroke="black" points="174.12,-201.3 164.12,-204.8 174.12,-208.3 174.12,-201.3"/>
</g>
<!-- CommunicationService -->
<g id="node7" class="node">
<title>CommunicationService</title>
<ellipse fill="#fdb462" stroke="black" cx="756" cy="-66.8" rx="102.44" ry="18"/>
<text text-anchor="middle" x="756" y="-62.6" font-family="Times,serif" font-size="14.00">CommunicationService</text>
</g>
<!-- CommunicationService&#45;&gt;CommunicationModule -->
<g id="edge7" class="edge">
<title>CommunicationService&#45;&gt;CommunicationModule</title>
<path fill="none" stroke="black" d="M715.87,-83.54C715.87,-134.59 715.87,-284.8 715.87,-284.8 715.87,-284.8 195.78,-284.8 195.78,-284.8"/>
<polygon fill="black" stroke="black" points="195.78,-281.3 185.78,-284.8 195.78,-288.3 195.78,-281.3"/>
</g>
<!-- PrismaService -->
<g id="node8" class="node">
<title>PrismaService</title>
<ellipse fill="#fdb462" stroke="black" cx="569" cy="-66.8" rx="66.64" ry="18"/>
<text text-anchor="middle" x="569" y="-62.6" font-family="Times,serif" font-size="14.00">PrismaService</text>
</g>
<!-- PrismaService&#45;&gt;CommunicationModule -->
<g id="edge8" class="edge">
<title>PrismaService&#45;&gt;CommunicationModule</title>
<path fill="none" stroke="black" d="M557,-84.6C557,-92.82 557,-100.8 557,-100.8 557,-100.8 177.53,-100.8 177.53,-100.8 177.53,-100.8 177.53,-247.73 177.53,-247.73"/>
<polygon fill="black" stroke="black" points="174.03,-247.73 177.53,-257.73 181.03,-247.73 174.03,-247.73"/>
</g>
<!-- PrismaService&#45;&gt;UserModule -->
<g id="edge17" class="edge">
<title>PrismaService&#45;&gt;UserModule</title>
<path fill="none" stroke="black" d="M619.85,-78.89C619.85,-108.04 619.85,-179.8 619.85,-179.8 619.85,-179.8 138.17,-179.8 138.17,-179.8 138.17,-179.8 138.17,-182.77 138.17,-182.77"/>
<polygon fill="black" stroke="black" points="134.67,-182.77 138.17,-192.77 141.67,-182.77 134.67,-182.77"/>
</g>
<!-- PrismaService&#45;&gt;MessageModule -->
<g id="edge11" class="edge">
<title>PrismaService&#45;&gt;MessageModule</title>
<path fill="none" stroke="black" d="M501.98,-66.8C493.82,-66.8 488.29,-66.8 488.29,-66.8 488.29,-66.8 488.29,-106.58 488.29,-106.58"/>
<polygon fill="black" stroke="black" points="484.79,-106.58 488.29,-116.58 491.79,-106.58 484.79,-106.58"/>
</g>
<!-- MessageService -->
<g id="node10" class="node">
<title>MessageService</title>
<ellipse fill="#fdb462" stroke="black" cx="300" cy="-210.8" rx="73.57" ry="18"/>
<text text-anchor="middle" x="300" y="-206.6" font-family="Times,serif" font-size="14.00">MessageService</text>
</g>
<!-- MessageService&#45;&gt;MessageModule -->
<g id="edge10" class="edge">
<title>MessageService&#45;&gt;MessageModule</title>
<path fill="none" stroke="black" d="M369.74,-204.84C369.74,-186.92 369.74,-134.8 369.74,-134.8 369.74,-134.8 373.88,-134.8 373.88,-134.8"/>
<polygon fill="black" stroke="black" points="373.88,-138.3 383.88,-134.8 373.88,-131.3 373.88,-138.3"/>
</g>
<!-- RoomService -->
<g id="node12" class="node">
<title>RoomService</title>
<ellipse fill="#fdb462" stroke="black" cx="640" cy="-210.8" rx="63.71" ry="18"/>
<text text-anchor="middle" x="640" y="-206.6" font-family="Times,serif" font-size="14.00">RoomService</text>
</g>
<!-- RoomService&#45;&gt;RoomModule -->
<g id="edge13" class="edge">
<title>RoomService&#45;&gt;RoomModule</title>
<path fill="none" stroke="black" d="M590.14,-199.59C590.14,-199.59 590.14,-162.84 590.14,-162.84"/>
<polygon fill="black" stroke="black" points="593.64,-162.84 590.14,-152.84 586.64,-162.84 593.64,-162.84"/>
</g>
<!-- UserService -->
<g id="node14" class="node">
<title>UserService</title>
<ellipse fill="#fdb462" stroke="black" cx="100" cy="-134.8" rx="58.46" ry="18"/>
<text text-anchor="middle" x="100" y="-130.6" font-family="Times,serif" font-size="14.00">UserService</text>
</g>
<!-- UserService&#45;&gt;UserModule -->
<g id="edge18" class="edge">
<title>UserService&#45;&gt;UserModule</title>
<path fill="none" stroke="black" d="M98.06,-152.81C98.06,-152.81 98.06,-182.65 98.06,-182.65"/>
<polygon fill="black" stroke="black" points="94.56,-182.65 98.06,-192.65 101.56,-182.65 94.56,-182.65"/>
</g>
</g>
</svg>
