<?xml version="1.0" encoding="UTF-8" standalone="no"?>
<!DOCTYPE svg PUBLIC "-//W3C//DTD SVG 1.1//EN"
 "http://www.w3.org/Graphics/SVG/1.1/DTD/svg11.dtd">
<!-- Generated by graphviz version 5.0.0 (20220707.1540)
 -->
<!-- Title: dependencies Pages: 1 -->
<svg width="690pt" height="174pt"
 viewBox="0.00 0.00 690.00 173.80" xmlns="http://www.w3.org/2000/svg" xmlns:xlink="http://www.w3.org/1999/xlink">
<g id="graph0" class="graph" transform="scale(1 1) rotate(0) translate(4 169.8)">
<title>dependencies</title>
<polygon fill="white" stroke="transparent" points="-4,4 -4,-169.8 686,-169.8 686,4 -4,4"/>
<text text-anchor="middle" x="341" y="-8.2" font-family="sans-serif" font-size="14.00">dependencies</text>
<g id="clust1" class="cluster">
<title>cluster_AppModule</title>
<polygon fill="none" stroke="black" stroke-dasharray="1,5" points="8,-32.8 8,-157.8 674,-157.8 674,-32.8 8,-32.8"/>
</g>
<g id="clust3" class="cluster">
<title>cluster_AppModule_imports</title>
<polygon fill="none" stroke="black" points="158,-40.8 158,-92.8 666,-92.8 666,-40.8 158,-40.8"/>
</g>
<g id="clust6" class="cluster">
<title>cluster_AppModule_providers</title>
<polygon fill="none" stroke="black" points="16,-40.8 16,-92.8 150,-92.8 150,-40.8 16,-40.8"/>
</g>
<!-- CommunicationModule -->
<g id="node1" class="node">
<title>CommunicationModule</title>
<polygon fill="#8dd3c7" stroke="black" points="657.77,-84.8 654.77,-88.8 633.77,-88.8 630.77,-84.8 508.23,-84.8 508.23,-48.8 657.77,-48.8 657.77,-84.8"/>
<text text-anchor="middle" x="583" y="-62.6" font-family="Times,serif" font-size="14.00">CommunicationModule</text>
</g>
<!-- AppModule -->
<g id="node5" class="node">
<title>AppModule</title>
<polygon fill="#8dd3c7" stroke="black" points="358.66,-149.8 355.66,-153.8 334.66,-153.8 331.66,-149.8 275.34,-149.8 275.34,-113.8 358.66,-113.8 358.66,-149.8"/>
<text text-anchor="middle" x="317" y="-127.6" font-family="Times,serif" font-size="14.00">AppModule</text>
</g>
<!-- CommunicationModule&#45;&gt;AppModule -->
<g id="edge1" class="edge">
<title>CommunicationModule&#45;&gt;AppModule</title>
<path fill="none" stroke="black" d="M583,-85.08C583,-106.12 583,-137.8 583,-137.8 583,-137.8 368.86,-137.8 368.86,-137.8"/>
<polygon fill="black" stroke="black" points="368.86,-134.3 358.86,-137.8 368.86,-141.3 368.86,-134.3"/>
</g>
<!-- MessageModule -->
<g id="node2" class="node">
<title>MessageModule</title>
<polygon fill="#8dd3c7" stroke="black" points="490.04,-84.8 487.04,-88.8 466.04,-88.8 463.04,-84.8 381.96,-84.8 381.96,-48.8 490.04,-48.8 490.04,-84.8"/>
<text text-anchor="middle" x="436" y="-62.6" font-family="Times,serif" font-size="14.00">MessageModule</text>
</g>
<!-- MessageModule&#45;&gt;AppModule -->
<g id="edge2" class="edge">
<title>MessageModule&#45;&gt;AppModule</title>
<path fill="none" stroke="black" d="M436,-84.82C436,-102.17 436,-125.8 436,-125.8 436,-125.8 368.95,-125.8 368.95,-125.8"/>
<polygon fill="black" stroke="black" points="368.95,-122.3 358.95,-125.8 368.95,-129.3 368.95,-122.3"/>
</g>
<!-- RoomModule -->
<g id="node3" class="node">
<title>RoomModule</title>
<polygon fill="#8dd3c7" stroke="black" points="363.78,-84.8 360.78,-88.8 339.78,-88.8 336.78,-84.8 270.22,-84.8 270.22,-48.8 363.78,-48.8 363.78,-84.8"/>
<text text-anchor="middle" x="317" y="-62.6" font-family="Times,serif" font-size="14.00">RoomModule</text>
</g>
<!-- RoomModule&#45;&gt;AppModule -->
<g id="edge3" class="edge">
<title>RoomModule&#45;&gt;AppModule</title>
<path fill="none" stroke="black" d="M317,-84.91C317,-84.91 317,-103.79 317,-103.79"/>
<polygon fill="black" stroke="black" points="313.5,-103.79 317,-113.79 320.5,-103.79 313.5,-103.79"/>
</g>
<!-- UserModule -->
<g id="node4" class="node">
<title>UserModule</title>
<polygon fill="#8dd3c7" stroke="black" points="251.99,-84.8 248.99,-88.8 227.99,-88.8 224.99,-84.8 166.01,-84.8 166.01,-48.8 251.99,-48.8 251.99,-84.8"/>
<text text-anchor="middle" x="209" y="-62.6" font-family="Times,serif" font-size="14.00">UserModule</text>
</g>
<!-- UserModule&#45;&gt;AppModule -->
<g id="edge4" class="edge">
<title>UserModule&#45;&gt;AppModule</title>
<path fill="none" stroke="black" d="M209,-84.82C209,-102.17 209,-125.8 209,-125.8 209,-125.8 265.24,-125.8 265.24,-125.8"/>
<polygon fill="black" stroke="black" points="265.24,-129.3 275.24,-125.8 265.24,-122.3 265.24,-129.3"/>
</g>
<!-- CronService -->
<g id="node6" class="node">
<title>CronService</title>
<ellipse fill="#fdb462" stroke="black" cx="83" cy="-66.8" rx="59.11" ry="18"/>
<text text-anchor="middle" x="83" y="-62.6" font-family="Times,serif" font-size="14.00">CronService</text>
</g>
<!-- CronService&#45;&gt;AppModule -->
<g id="edge5" class="edge">
<title>CronService&#45;&gt;AppModule</title>
<path fill="none" stroke="black" d="M83,-85.08C83,-106.12 83,-137.8 83,-137.8 83,-137.8 265.17,-137.8 265.17,-137.8"/>
<polygon fill="black" stroke="black" points="265.17,-141.3 275.17,-137.8 265.17,-134.3 265.17,-141.3"/>
</g>
</g>
</svg>
