<?xml version="1.0" encoding="UTF-8" standalone="no"?>
<!DOCTYPE svg PUBLIC "-//W3C//DTD SVG 1.1//EN"
 "http://www.w3.org/Graphics/SVG/1.1/DTD/svg11.dtd">
<!-- Generated by graphviz version 5.0.0 (20220707.1540)
 -->
<!-- Title: dependencies Pages: 1 -->
<svg width="310pt" height="174pt"
 viewBox="0.00 0.00 310.00 173.80" xmlns="http://www.w3.org/2000/svg" xmlns:xlink="http://www.w3.org/1999/xlink">
<g id="graph0" class="graph" transform="scale(1 1) rotate(0) translate(4 169.8)">
<title>dependencies</title>
<polygon fill="white" stroke="transparent" points="-4,4 -4,-169.8 306,-169.8 306,4 -4,4"/>
<text text-anchor="middle" x="151" y="-8.2" font-family="sans-serif" font-size="14.00">dependencies</text>
<g id="clust1" class="cluster">
<title>cluster_AppModule</title>
<polygon fill="none" stroke="black" stroke-dasharray="1,5" points="8,-32.8 8,-157.8 294,-157.8 294,-32.8 8,-32.8"/>
</g>
<g id="clust3" class="cluster">
<title>cluster_AppModule_imports</title>
<polygon fill="none" stroke="black" points="16,-40.8 16,-92.8 286,-92.8 286,-40.8 16,-40.8"/>
</g>
<!-- CommunicationModule -->
<g id="node1" class="node">
<title>CommunicationModule</title>
<polygon fill="#8dd3c7" stroke="black" points="277.77,-84.8 274.77,-88.8 253.77,-88.8 250.77,-84.8 128.23,-84.8 128.23,-48.8 277.77,-48.8 277.77,-84.8"/>
<text text-anchor="middle" x="203" y="-62.6" font-family="Times,serif" font-size="14.00">CommunicationModule</text>
</g>
<!-- AppModule -->
<g id="node3" class="node">
<title>AppModule</title>
<polygon fill="#8dd3c7" stroke="black" points="176.66,-149.8 173.66,-153.8 152.66,-153.8 149.66,-149.8 93.34,-149.8 93.34,-113.8 176.66,-113.8 176.66,-149.8"/>
<text text-anchor="middle" x="135" y="-127.6" font-family="Times,serif" font-size="14.00">AppModule</text>
</g>
<!-- CommunicationModule&#45;&gt;AppModule -->
<g id="edge1" class="edge">
<title>CommunicationModule&#45;&gt;AppModule</title>
<path fill="none" stroke="black" d="M152.47,-84.91C152.47,-84.91 152.47,-103.79 152.47,-103.79"/>
<polygon fill="black" stroke="black" points="148.97,-103.79 152.47,-113.79 155.97,-103.79 148.97,-103.79"/>
</g>
<!-- UserModule -->
<g id="node2" class="node">
<title>UserModule</title>
<polygon fill="#8dd3c7" stroke="black" points="109.99,-84.8 106.99,-88.8 85.99,-88.8 82.99,-84.8 24.01,-84.8 24.01,-48.8 109.99,-48.8 109.99,-84.8"/>
<text text-anchor="middle" x="67" y="-62.6" font-family="Times,serif" font-size="14.00">UserModule</text>
</g>
<!-- UserModule&#45;&gt;AppModule -->
<g id="edge2" class="edge">
<title>UserModule&#45;&gt;AppModule</title>
<path fill="none" stroke="black" d="M101.58,-84.91C101.58,-84.91 101.58,-103.79 101.58,-103.79"/>
<polygon fill="black" stroke="black" points="98.08,-103.79 101.58,-113.79 105.08,-103.79 98.08,-103.79"/>
</g>
</g>
</svg>
