<?xml version="1.0" encoding="UTF-8" standalone="no"?>
<!DOCTYPE svg PUBLIC "-//W3C//DTD SVG 1.1//EN"
 "http://www.w3.org/Graphics/SVG/1.1/DTD/svg11.dtd">
<!-- Generated by graphviz version 5.0.0 (20220707.1540)
 -->
<!-- Title: dependencies Pages: 1 -->
<svg width="335pt" height="247pt"
 viewBox="0.00 0.00 335.00 246.80" xmlns="http://www.w3.org/2000/svg" xmlns:xlink="http://www.w3.org/1999/xlink">
<g id="graph0" class="graph" transform="scale(1 1) rotate(0) translate(4 242.8)">
<title>dependencies</title>
<polygon fill="white" stroke="transparent" points="-4,4 -4,-242.8 331,-242.8 331,4 -4,4"/>
<text text-anchor="middle" x="163.5" y="-8.2" font-family="sans-serif" font-size="14.00">dependencies</text>
<g id="clust1" class="cluster">
<title>cluster_RoomModule</title>
<polygon fill="none" stroke="black" stroke-dasharray="1,5" points="8,-32.8 8,-230.8 319,-230.8 319,-32.8 8,-32.8"/>
</g>
<g id="clust4" class="cluster">
<title>cluster_RoomModule_exports</title>
<polygon fill="none" stroke="black" points="106,-170.8 106,-222.8 218,-222.8 218,-170.8 106,-170.8"/>
</g>
<g id="clust6" class="cluster">
<title>cluster_RoomModule_providers</title>
<polygon fill="none" stroke="black" points="16,-40.8 16,-92.8 311,-92.8 311,-40.8 16,-40.8"/>
</g>
<!-- RoomService  -->
<g id="node1" class="node">
<title>RoomService </title>
<polygon fill="#fb8072" stroke="black" points="209.71,-214.8 114.29,-214.8 114.29,-178.8 209.71,-178.8 209.71,-214.8"/>
<text text-anchor="middle" x="162" y="-192.6" font-family="Times,serif" font-size="14.00">RoomService </text>
</g>
<!-- RoomModule -->
<g id="node2" class="node">
<title>RoomModule</title>
<polygon fill="#8dd3c7" stroke="black" points="208.78,-149.8 205.78,-153.8 184.78,-153.8 181.78,-149.8 115.22,-149.8 115.22,-113.8 208.78,-113.8 208.78,-149.8"/>
<text text-anchor="middle" x="162" y="-127.6" font-family="Times,serif" font-size="14.00">RoomModule</text>
</g>
<!-- RoomModule&#45;&gt;RoomService  -->
<g id="edge1" class="edge">
<title>RoomModule&#45;&gt;RoomService </title>
<path fill="none" stroke="black" stroke-dasharray="5,2" d="M162,-149.91C162,-149.91 162,-168.79 162,-168.79"/>
<polygon fill="black" stroke="black" points="158.5,-168.79 162,-178.79 165.5,-168.79 158.5,-168.79"/>
</g>
<!-- PrismaService -->
<g id="node3" class="node">
<title>PrismaService</title>
<ellipse fill="#fdb462" stroke="black" cx="236" cy="-66.8" rx="66.64" ry="18"/>
<text text-anchor="middle" x="236" y="-62.6" font-family="Times,serif" font-size="14.00">PrismaService</text>
</g>
<!-- PrismaService&#45;&gt;RoomModule -->
<g id="edge2" class="edge">
<title>PrismaService&#45;&gt;RoomModule</title>
<path fill="none" stroke="black" d="M189.04,-79.64C189.04,-79.64 189.04,-103.32 189.04,-103.32"/>
<polygon fill="black" stroke="black" points="185.54,-103.32 189.04,-113.32 192.54,-103.32 185.54,-103.32"/>
</g>
<!-- RoomService -->
<g id="node4" class="node">
<title>RoomService</title>
<ellipse fill="#fdb462" stroke="black" cx="88" cy="-66.8" rx="63.71" ry="18"/>
<text text-anchor="middle" x="88" y="-62.6" font-family="Times,serif" font-size="14.00">RoomService</text>
</g>
<!-- RoomService&#45;&gt;RoomModule -->
<g id="edge3" class="edge">
<title>RoomService&#45;&gt;RoomModule</title>
<path fill="none" stroke="black" d="M133.36,-79.64C133.36,-79.64 133.36,-103.32 133.36,-103.32"/>
<polygon fill="black" stroke="black" points="129.86,-103.32 133.36,-113.32 136.86,-103.32 129.86,-103.32"/>
</g>
</g>
</svg>
